<svg width="27" height="17" viewBox="0 0 27 17" fill="none" xmlns="http://www.w3.org/2000/svg">
<path d="M6.10218 0.869866L3.66089 0.0287885C3.39861 -0.0639286 3.10942 0.0751482 3.01527 0.333431L0.0292348 8.72432C-0.0649193 8.98261 0.0763118 9.26738 0.338598 9.3601L2.77988 10.2012C3.04217 10.2939 3.33135 10.1548 3.42551 9.89653L6.41154 1.50564C6.50569 1.24735 6.36446 0.962583 6.10218 0.869866ZM6.90921 2.11492L4.20564 9.71772L5.50362 10.6449C8.27445 13.3271 8.71159 13.8966 11.4084 16.5523C12.545 17.6715 13.9775 16.4132 13.5336 15.8039L11.3614 13.7642C11.2268 13.6383 11.2268 13.433 11.3546 13.3006C11.4824 13.1681 11.6976 13.1681 11.8321 13.294L14.2936 15.6185L14.5626 15.8635L14.8182 16.0887C15.5714 16.7576 17.1451 15.4198 16.4457 14.7443L13.9842 12.4198C13.8497 12.2939 13.8497 12.082 13.9775 11.9496C14.1053 11.8171 14.3205 11.8171 14.455 11.9429L16.9164 14.2675C17.4477 14.7642 18.2212 14.2145 18.4902 13.6979C18.665 13.3734 18.6583 13.0555 18.396 12.7906L15.9346 10.4661C15.8001 10.3403 15.8001 10.1283 15.9278 9.99587C16.0556 9.86342 16.2708 9.86342 16.4053 9.98925L18.8668 12.3138C18.8735 12.3204 18.8802 12.327 18.887 12.3337C19.62 13.0555 20.9853 11.5787 20.4405 11.0423L17.0173 7.69781C15.9615 6.66468 15.0334 6.34679 13.9035 7.10178C12.2962 8.17464 10.8099 8.06868 9.84144 7.55212C9.27651 7.24748 8.78557 6.74415 8.67124 6.15474C8.57708 5.66466 8.74522 5.20108 9.24961 4.90306L12.0675 3.25402L6.90921 2.11492ZM22.7204 9.49917L20.0908 2.11492C18.5171 2.39307 13.5 3.04872 13.0696 3.40634C13.036 3.43945 13.0023 3.46594 12.962 3.48581L9.57915 5.46598C9.14201 5.71764 9.29669 6.18123 9.57243 6.50574C9.72038 6.67793 9.91542 6.83687 10.1508 6.9627C10.9377 7.37993 12.1549 7.45278 13.5134 6.54547C14.9325 5.59844 16.1901 5.96268 17.4746 7.22098L20.8037 10.4793L22.7204 9.49917ZM23.3391 0.0287885L20.8978 0.869866C20.6355 0.962583 20.4943 1.24735 20.5885 1.50564L23.44 9.53229C23.5476 9.80382 23.5678 10.0555 23.8301 10.1813C23.9511 10.2409 24.0856 10.2475 24.2201 10.2012L26.6614 9.3601C26.9237 9.26738 27.0649 8.98261 26.9708 8.72432L23.9847 0.333431C23.8973 0.0751482 23.6014 -0.0639286 23.3391 0.0287885Z" fill="url(#paint0_linear_1_245)"/>
<defs>
<linearGradient id="paint0_linear_1_245" x1="0" y1="2.50388" x2="27" y2="2.50388" gradientUnits="userSpaceOnUse">
<stop stop-color="#FD747A"/>
<stop offset="1" stop-color="#EB366C"/>
</linearGradient>
</defs>
</svg>
